<svg data-v-423bf9ae="" xmlns="http://www.w3.org/2000/svg" viewBox="0 0 474 90" class="iconLeftSlogan"><!----><!----><!----><g data-v-423bf9ae="" id="47705c5a-1abd-493a-b1d5-df55332cd525" fill="#0C3D33" transform="matrix(3.8860107083305437,0,0,3.8860107083305437,104.13211940484956,-18.886013038162005)"><path d="M7.20 9.21L7.20 9.21L7.20 9.21Q7.66 9.21 7.92 9.46L7.92 9.46L7.92 9.46Q8.18 9.72 8.18 10.16L8.18 10.16L8.18 10.16Q8.18 10.28 8.15 10.39L8.15 10.39L8.15 10.39Q8.13 10.51 8.11 10.60L8.11 10.60L8.11 10.60Q7.92 10.57 7.70 10.55L7.70 10.55L7.70 10.55Q7.48 10.53 7.17 10.53L7.17 10.53L7.17 10.53Q6.57 10.53 5.95 10.63L5.95 10.63L5.95 10.63Q5.33 10.74 4.77 10.81L4.77 10.81L4.77 10.81Q4.45 11.55 4.19 12.24L4.19 12.24L4.19 12.24Q3.92 12.94 3.73 13.51L3.73 13.51L3.73 13.51Q3.54 14.08 3.44 14.50L3.44 14.50L3.44 14.50Q3.33 14.92 3.32 15.13L3.32 15.13L3.32 15.13Q4.45 14.90 5.61 14.73L5.61 14.73L5.61 14.73Q6.76 14.56 8.04 14.48L8.04 14.48L8.04 14.48Q8.19 14.71 8.29 14.99L8.29 14.99L8.29 14.99Q8.40 15.27 8.40 15.60L8.40 15.60L8.40 15.60Q8.40 15.68 8.40 15.78L8.40 15.78L8.40 15.78Q8.40 15.88 8.37 15.97L8.37 15.97L8.37 15.97Q7.98 15.96 7.55 15.95L7.55 15.95L7.55 15.95Q7.11 15.95 6.41 15.95L6.41 15.95L6.41 15.95Q5.95 15.95 5.54 15.97L5.54 15.97L5.54 15.97Q5.12 15.99 4.70 16.03L4.70 16.03L4.70 16.03Q4.28 16.07 3.81 16.14L3.81 16.14L3.81 16.14Q3.35 16.21 2.76 16.31L2.76 16.31L2.76 16.31Q2.11 16.06 1.51 15.08L1.51 15.08L1.51 15.08Q1.75 14.57 2.18 13.54L2.18 13.54L2.18 13.54Q2.60 12.52 3.26 10.79L3.26 10.79L3.26 10.79Q2.63 10.60 2.44 10.09L2.44 10.09L2.44 10.09Q2.51 10.02 2.84 9.92L2.84 9.92L2.84 9.92Q3.18 9.81 3.67 9.70L3.67 9.70L3.67 9.70Q3.88 9.16 4.03 8.75L4.03 8.75L4.03 8.75Q4.17 8.34 4.28 7.99L4.28 7.99L4.28 7.99Q4.40 7.63 4.49 7.29L4.49 7.29L4.49 7.29Q4.58 6.94 4.66 6.54L4.66 6.54L4.66 6.54Q4.17 6.51 3.89 6.27L3.89 6.27L3.89 6.27Q3.61 6.02 3.61 5.63L3.61 5.63L3.61 5.63Q3.61 5.52 3.65 5.36L3.65 5.36L3.65 5.36Q3.68 5.21 3.72 5.10L3.72 5.10L3.72 5.10Q4.00 5.14 4.26 5.15L4.26 5.15L4.26 5.15Q4.52 5.17 4.94 5.17L4.94 5.17L4.94 5.17Q5.82 5.17 6.59 5.12L6.59 5.12L6.59 5.12Q7.36 5.07 7.99 5.01L7.99 5.01L7.99 5.01Q8.61 4.96 9.06 4.91L9.06 4.91L9.06 4.91Q9.51 4.86 9.74 4.86L9.74 4.86L9.74 4.86Q10.07 4.86 10.32 5.19L10.32 5.19L10.32 5.19Q10.57 5.53 10.70 6.15L10.70 6.15L10.70 6.15Q10.26 6.10 9.99 6.09L9.99 6.09L9.99 6.09Q9.72 6.08 9.51 6.08L9.51 6.08L9.51 6.08Q8.74 6.08 8.10 6.15L8.10 6.15L8.10 6.15Q7.46 6.23 6.87 6.31L6.87 6.31L6.87 6.31Q6.79 6.44 6.69 6.64L6.69 6.64L6.69 6.64Q6.58 6.83 6.41 7.18L6.41 7.18L6.41 7.18Q6.24 7.53 6.00 8.06L6.00 8.06L6.00 8.06Q5.75 8.60 5.40 9.39L5.40 9.39L5.40 9.39Q5.94 9.31 6.41 9.26L6.41 9.26L6.41 9.26Q6.87 9.21 7.20 9.21ZM13.43 14.87L13.43 14.87L13.43 14.87Q13.16 14.64 13.07 14.31L13.07 14.31L13.07 14.31Q12.98 13.97 12.98 13.73L12.98 13.73L12.98 13.73Q12.98 13.44 13.05 13.23L13.05 13.23L13.05 13.23Q12.99 13.23 12.80 13.45L12.80 13.45L12.80 13.45Q12.60 13.68 12.37 13.99L12.37 13.99L12.37 13.99Q12.14 14.29 11.91 14.59L11.91 14.59L11.91 14.59Q11.69 14.88 11.58 15.02L11.58 15.02L11.58 15.02Q11.40 15.22 11.23 15.33L11.23 15.33L11.23 15.33Q11.07 15.44 10.98 15.46L10.98 15.46L10.98 15.46Q10.75 15.44 10.51 15.37L10.51 15.37L10.51 15.37Q10.26 15.29 10.04 15.15L10.04 15.15L10.04 15.15Q9.83 15.01 9.67 14.81L9.67 14.81L9.67 14.81Q9.51 14.62 9.45 14.36L9.45 14.36L9.45 14.36Q9.45 13.97 9.47 13.72L9.47 13.72L9.47 13.72Q9.49 13.47 9.56 13.17L9.56 13.17L9.56 13.17Q9.69 12.64 9.93 11.97L9.93 11.97L9.93 11.97Q10.18 11.30 10.50 10.65L10.50 10.65L10.50 10.65Q10.82 10.00 11.22 9.43L11.22 9.43L11.22 9.43Q11.62 8.86 12.07 8.54L12.07 8.54L12.07 8.54Q12.19 8.54 12.36 8.56L12.36 8.56L12.36 8.56Q12.53 8.58 12.71 8.64L12.71 8.64L12.71 8.64Q12.88 8.69 13.04 8.77L13.04 8.77L13.04 8.77Q13.20 8.85 13.31 8.97L13.31 8.97L13.31 8.97Q13.19 9.11 12.68 9.91L12.68 9.91L12.68 9.91Q12.17 10.71 11.54 12.21L11.54 12.21L11.54 12.21Q11.47 12.36 11.37 12.66L11.37 12.66L11.37 12.66Q11.27 12.95 11.17 13.27L11.17 13.27L11.17 13.27Q11.07 13.59 11.01 13.90L11.01 13.90L11.01 13.90Q10.95 14.21 10.95 14.39L10.95 14.39L10.95 14.39Q10.95 14.50 10.98 14.56L10.98 14.56L10.98 14.56Q11.02 14.62 11.05 14.64L11.05 14.64L11.05 14.64Q11.26 14.56 11.58 14.18L11.58 14.18L11.58 14.18Q11.90 13.80 12.47 13.02L12.47 13.02L12.47 13.02Q12.61 12.82 12.80 12.57L12.80 12.57L12.80 12.57Q12.99 12.32 13.19 12.03L13.19 12.03L13.19 12.03Q13.38 11.75 13.56 11.44L13.56 11.44L13.56 11.44Q13.73 11.13 13.85 10.82L13.85 10.82L13.85 10.82Q13.90 10.65 13.99 10.42L13.99 10.42L13.99 10.42Q14.08 10.19 14.22 9.94L14.22 9.94L14.22 9.94Q14.35 9.69 14.53 9.43L14.53 9.43L14.53 9.43Q14.70 9.17 14.94 8.95L14.94 8.95L14.94 8.95Q15.12 8.95 15.33 8.99L15.33 8.99L15.33 8.99Q15.54 9.03 15.73 9.09L15.73 9.09L15.73 9.09Q15.92 9.16 16.06 9.23L16.06 9.23L16.06 9.23Q16.20 9.31 16.27 9.39L16.27 9.39L16.27 9.39Q16.02 10.01 15.71 10.61L15.71 10.61L15.71 10.61Q15.40 11.21 15.13 11.79L15.13 11.79L15.13 11.79Q14.87 12.38 14.69 12.95L14.69 12.95L14.69 12.95Q14.50 13.52 14.50 14.07L14.50 14.07L14.50 14.07Q14.50 14.36 14.55 14.58L14.55 14.58L14.55 14.58Q14.60 14.80 14.66 14.95L14.66 14.95L14.66 14.95Q14.71 15.09 14.76 15.19L14.76 15.19L14.76 15.19Q14.81 15.29 14.81 15.36L14.81 15.36L14.81 15.36Q14.81 15.37 14.78 15.40L14.78 15.40L14.78 15.40Q14.77 15.41 14.76 15.41L14.76 15.41L14.76 15.41Q14.66 15.41 14.50 15.37L14.50 15.37L14.50 15.37Q14.35 15.33 14.16 15.25L14.16 15.25L14.16 15.25Q13.97 15.18 13.78 15.08L13.78 15.08L13.78 15.08Q13.59 14.98 13.43 14.87ZM16.20 14.90L16.20 14.90L16.20 14.90Q16.27 14.49 16.44 13.82L16.44 13.82L16.44 13.82Q16.62 13.16 16.86 12.41L16.86 12.41L16.86 12.41Q17.09 11.66 17.36 10.91L17.36 10.91L17.36 10.91Q17.63 10.15 17.88 9.55L17.88 9.55L17.88 9.55Q18.06 9.11 18.20 8.87L18.20 8.87L18.20 8.87Q18.34 8.62 18.51 8.46L18.51 8.46L18.51 8.46Q18.70 8.48 18.91 8.55L18.91 8.55L18.91 8.55Q19.12 8.62 19.32 8.72L19.32 8.72L19.32 8.72Q19.52 8.82 19.67 8.93L19.67 8.93L19.67 8.93Q19.82 9.03 19.91 9.13L19.91 9.13L19.91 9.13Q19.53 9.58 19.24 10.15L19.24 10.15L19.24 10.15Q18.96 10.72 18.66 11.62L18.66 11.62L18.66 11.62Q19.42 10.95 20.00 10.33L20.00 10.33L20.00 10.33Q20.58 9.72 21.08 8.96L21.08 8.96L21.08 8.96Q21.17 8.89 21.38 8.89L21.38 8.89L21.38 8.89Q21.57 8.89 21.76 8.95L21.76 8.95L21.76 8.95Q21.94 9.02 22.01 9.13L22.01 9.13L22.01 9.13Q21.76 9.80 21.76 10.46L21.76 10.46L21.76 10.46Q21.76 11.07 21.94 11.38L21.94 11.38L21.94 11.38Q21.92 11.47 21.75 11.70L21.75 11.70L21.75 11.70Q21.57 11.94 21.36 12.15L21.36 12.15L21.36 12.15Q20.99 11.96 20.69 11.61L20.69 11.61L20.69 11.61Q20.40 11.27 20.26 10.86L20.26 10.86L20.26 10.86Q19.60 11.33 19.14 11.77L19.14 11.77L19.14 11.77Q18.68 12.21 18.35 12.75L18.35 12.75L18.35 12.75Q18.02 13.29 17.79 13.99L17.79 13.99L17.79 13.99Q17.56 14.69 17.35 15.65L17.35 15.65L17.35 15.65Q17.22 15.64 17.05 15.56L17.05 15.56L17.05 15.56Q16.87 15.48 16.70 15.37L16.70 15.37L16.70 15.37Q16.52 15.26 16.38 15.13L16.38 15.13L16.38 15.13Q16.24 15.01 16.20 14.90ZM23.83 15.67L23.83 15.67L23.83 15.67Q23.03 15.58 22.55 14.97L22.55 14.97L22.55 14.97Q22.08 14.35 22.08 13.40L22.08 13.40L22.08 13.40Q22.08 12.84 22.25 12.24L22.25 12.24L22.25 12.24Q22.41 11.63 22.72 11.07L22.72 11.07L22.72 11.07Q23.03 10.50 23.45 10.00L23.45 10.00L23.45 10.00Q23.87 9.49 24.36 9.13L24.36 9.13L24.36 9.13Q25.13 8.55 25.80 8.55L25.80 8.55L25.80 8.55Q26.25 8.79 26.68 9.55L26.68 9.55L26.68 9.55Q26.75 9.55 26.81 9.54L26.81 9.54L26.81 9.54Q26.87 9.53 26.94 9.53L26.94 9.53L26.94 9.53Q27.68 9.53 27.68 10.85L27.68 10.85L27.68 10.85Q27.68 11.73 27.39 12.52L27.39 12.52L27.39 12.52Q27.10 13.31 26.59 13.96L26.59 13.96L26.59 13.96Q26.08 14.60 25.38 15.04L25.38 15.04L25.38 15.04Q24.67 15.48 23.83 15.67ZM24.54 11.26L24.54 11.26L24.54 11.26Q24.30 11.58 24.09 11.96L24.09 11.96L24.09 11.96Q23.88 12.33 23.73 12.72L23.73 12.72L23.73 12.72Q23.58 13.10 23.49 13.46L23.49 13.46L23.49 13.46Q23.41 13.82 23.41 14.10L23.41 14.10L23.41 14.10Q23.41 14.43 23.52 14.74L23.52 14.74L23.52 14.74Q23.63 15.05 23.77 15.09L23.77 15.09L23.77 15.09Q24.40 14.95 24.93 14.57L24.93 14.57L24.93 14.57Q25.45 14.18 25.84 13.61L25.84 13.61L25.84 13.61Q26.22 13.03 26.44 12.31L26.44 12.31L26.44 12.31Q26.66 11.58 26.66 10.75L26.66 10.75L26.66 10.75Q26.66 10.39 26.61 10.18L26.61 10.18L26.61 10.18Q26.57 9.97 26.47 9.81L26.47 9.81L26.47 9.81Q25.86 10.00 25.38 10.40L25.38 10.40L25.38 10.40Q24.89 10.81 24.54 11.26ZM37.52 9.21L37.52 9.21L37.52 9.21Q37.98 9.21 38.24 9.46L38.24 9.46L38.24 9.46Q38.50 9.72 38.50 10.16L38.50 10.16L38.50 10.16Q38.50 10.28 38.48 10.39L38.48 10.39L38.48 10.39Q38.46 10.51 38.43 10.60L38.43 10.60L38.43 10.60Q38.25 10.57 38.02 10.55L38.02 10.55L38.02 10.55Q37.80 10.53 37.49 10.53L37.49 10.53L37.49 10.53Q36.89 10.53 36.27 10.63L36.27 10.63L36.27 10.63Q35.66 10.74 35.10 10.81L35.10 10.81L35.10 10.81Q34.78 11.55 34.51 12.24L34.51 12.24L34.51 12.24Q34.24 12.94 34.05 13.51L34.05 13.51L34.05 13.51Q33.87 14.08 33.76 14.50L33.76 14.50L33.76 14.50Q33.66 14.92 33.64 15.13L33.64 15.13L33.64 15.13Q34.78 14.90 35.93 14.73L35.93 14.73L35.93 14.73Q37.09 14.56 38.36 14.48L38.36 14.48L38.36 14.48Q38.51 14.71 38.62 14.99L38.62 14.99L38.62 14.99Q38.72 15.27 38.72 15.60L38.72 15.60L38.72 15.60Q38.72 15.68 38.72 15.78L38.72 15.78L38.72 15.78Q38.72 15.88 38.70 15.97L38.70 15.97L38.70 15.97Q38.30 15.96 37.87 15.95L37.87 15.95L37.87 15.95Q37.44 15.95 36.74 15.95L36.74 15.95L36.74 15.95Q36.27 15.95 35.86 15.97L35.86 15.97L35.86 15.97Q35.45 15.99 35.03 16.03L35.03 16.03L35.03 16.03Q34.61 16.07 34.14 16.14L34.14 16.14L34.14 16.14Q33.67 16.21 33.08 16.31L33.08 16.31L33.08 16.31Q32.44 16.06 31.84 15.08L31.84 15.08L31.84 15.08Q32.07 14.57 32.50 13.54L32.50 13.54L32.50 13.54Q32.93 12.52 33.59 10.79L33.59 10.79L33.59 10.79Q32.96 10.60 32.76 10.09L32.76 10.09L32.76 10.09Q32.83 10.02 33.17 9.92L33.17 9.92L33.17 9.92Q33.50 9.81 33.99 9.70L33.99 9.70L33.99 9.70Q34.20 9.16 34.35 8.75L34.35 8.75L34.35 8.75Q34.50 8.34 34.61 7.99L34.61 7.99L34.61 7.99Q34.72 7.63 34.81 7.29L34.81 7.29L34.81 7.29Q34.90 6.94 34.99 6.54L34.99 6.54L34.99 6.54Q34.50 6.51 34.22 6.27L34.22 6.27L34.22 6.27Q33.94 6.02 33.94 5.63L33.94 5.63L33.94 5.63Q33.94 5.52 33.97 5.36L33.97 5.36L33.97 5.36Q34.01 5.21 34.05 5.10L34.05 5.10L34.05 5.10Q34.33 5.14 34.59 5.15L34.59 5.15L34.59 5.15Q34.85 5.17 35.27 5.17L35.27 5.17L35.27 5.17Q36.15 5.17 36.92 5.12L36.92 5.12L36.92 5.12Q37.69 5.07 38.31 5.01L38.31 5.01L38.31 5.01Q38.93 4.96 39.38 4.91L39.38 4.91L39.38 4.91Q39.83 4.86 40.07 4.86L40.07 4.86L40.07 4.86Q40.39 4.86 40.64 5.19L40.64 5.19L40.64 5.19Q40.89 5.53 41.02 6.15L41.02 6.15L41.02 6.15Q40.59 6.10 40.31 6.09L40.31 6.09L40.31 6.09Q40.04 6.08 39.83 6.08L39.83 6.08L39.83 6.08Q39.06 6.08 38.42 6.15L38.42 6.15L38.42 6.15Q37.79 6.23 37.20 6.31L37.20 6.31L37.20 6.31Q37.11 6.44 37.01 6.64L37.01 6.64L37.01 6.64Q36.90 6.83 36.74 7.18L36.74 7.18L36.74 7.18Q36.57 7.53 36.32 8.06L36.32 8.06L36.32 8.06Q36.08 8.60 35.73 9.39L35.73 9.39L35.73 9.39Q36.26 9.31 36.73 9.26L36.73 9.26L36.73 9.26Q37.20 9.21 37.52 9.21ZM42.32 8.39L42.32 8.39L42.32 8.39Q42.69 8.50 43.01 8.88L43.01 8.88L43.01 8.88Q43.33 9.27 43.48 9.73L43.48 9.73L43.48 9.73Q43.33 10.11 43.01 10.64L43.01 10.64L43.01 10.64Q42.69 11.17 42.36 11.72L42.36 11.72L42.36 11.72Q42.04 12.28 41.78 12.78L41.78 12.78L41.78 12.78Q41.52 13.27 41.48 13.59L41.48 13.59L41.48 13.59Q41.71 13.36 41.98 13.04L41.98 13.04L41.98 13.04Q42.25 12.73 42.51 12.41L42.51 12.41L42.51 12.41Q42.77 12.10 42.99 11.84L42.99 11.84L42.99 11.84Q43.22 11.58 43.34 11.45L43.34 11.45L43.34 11.45Q43.61 11.17 43.97 10.80L43.97 10.80L43.97 10.80Q44.34 10.43 44.74 10.10L44.74 10.10L44.74 10.10Q45.14 9.77 45.54 9.54L45.54 9.54L45.54 9.54Q45.95 9.31 46.28 9.31L46.28 9.31L46.28 9.31Q46.65 9.31 46.89 9.55L46.89 9.55L46.89 9.55Q47.14 9.80 47.28 10.07L47.28 10.07L47.28 10.07Q47.28 10.09 47.17 10.14L47.17 10.14L47.17 10.14Q47.07 10.19 46.87 10.42L46.87 10.42L46.87 10.42Q46.68 10.67 46.43 11.11L46.43 11.11L46.43 11.11Q46.19 11.55 45.95 12.06L45.95 12.06L45.95 12.06Q45.72 12.57 45.57 13.10L45.57 13.10L45.57 13.10Q45.42 13.64 45.42 14.07L45.42 14.07L45.42 14.07Q45.42 14.42 45.51 14.52L45.51 14.52L45.51 14.52Q45.60 14.62 45.77 14.62L45.77 14.62L45.77 14.62Q45.92 14.62 46.09 14.55L46.09 14.55L46.09 14.55Q46.26 14.48 46.35 14.48L46.35 14.48L46.35 14.48Q46.41 14.50 46.45 14.60L46.45 14.60L46.45 14.60Q46.48 14.69 46.48 14.76L46.48 14.76L46.48 14.76Q46.37 14.85 46.21 14.95L46.21 14.95L46.21 14.95Q46.06 15.05 45.89 15.13L45.89 15.13L45.89 15.13Q45.72 15.22 45.56 15.27L45.56 15.27L45.56 15.27Q45.40 15.33 45.28 15.33L45.28 15.33L45.28 15.33Q44.87 15.33 44.61 15.21L44.61 15.21L44.61 15.21Q44.35 15.09 44.20 14.90L44.20 14.90L44.20 14.90Q44.06 14.70 44.00 14.43L44.00 14.43L44.00 14.43Q43.95 14.15 43.95 13.85L43.95 13.85L43.95 13.85Q43.95 13.68 43.97 13.47L43.97 13.47L43.97 13.47Q44.00 13.26 44.09 12.97L44.09 12.97L44.09 12.97Q44.17 12.68 44.32 12.29L44.32 12.29L44.32 12.29Q44.48 11.89 44.72 11.33L44.72 11.33L44.72 11.33Q44.69 11.33 44.34 11.52L44.34 11.52L44.34 11.52Q43.99 11.72 43.58 12.12L43.58 12.12L43.58 12.12Q42.92 12.75 42.40 13.37L42.40 13.37L42.40 13.37Q41.87 13.99 41.33 14.74L41.33 14.74L41.33 14.74Q41.02 15.18 40.79 15.48L40.79 15.48L40.79 15.48Q40.56 15.78 40.39 15.88L40.39 15.88L40.39 15.88Q40.10 15.71 39.96 15.41L39.96 15.41L39.96 15.41Q39.82 15.11 39.75 14.78L39.75 14.78L39.75 14.78Q39.75 14.52 39.82 14.11L39.82 14.11L39.82 14.11Q39.90 13.71 40.03 13.21L40.03 13.21L40.03 13.21Q40.17 12.71 40.36 12.17L40.36 12.17L40.36 12.17Q40.56 11.62 40.80 11.07L40.80 11.07L40.80 11.07Q41.33 9.84 41.77 9.14L41.77 9.14L41.77 9.14Q42.21 8.44 42.32 8.39ZM49.24 9.81L48.44 9.81L48.44 9.81Q48.37 9.73 48.31 9.46L48.31 9.46L48.31 9.46Q48.26 9.18 48.26 8.99L48.26 8.99L48.26 8.99Q48.62 9.02 48.96 9.04L48.96 9.04L48.96 9.04Q49.29 9.06 49.57 9.07L49.57 9.07L49.57 9.07Q49.78 8.65 50.03 8.24L50.03 8.24L50.03 8.24Q50.27 7.83 50.51 7.48L50.51 7.48L50.51 7.48Q50.74 7.14 50.94 6.90L50.94 6.90L50.94 6.90Q51.14 6.66 51.25 6.59L51.25 6.59L51.25 6.59Q51.39 6.59 51.61 6.64L51.61 6.64L51.61 6.64Q51.83 6.69 52.05 6.77L52.05 6.77L52.05 6.77Q52.28 6.85 52.46 6.93L52.46 6.93L52.46 6.93Q52.64 7.01 52.71 7.10L52.71 7.10L52.71 7.10Q52.29 7.63 51.99 8.09L51.99 8.09L51.99 8.09Q51.69 8.54 51.34 9.13L51.34 9.13L51.34 9.13Q51.62 9.13 51.91 9.11L51.91 9.11L51.91 9.11Q52.19 9.10 52.49 9.07L52.49 9.07L52.49 9.07Q52.56 9.14 52.60 9.25L52.60 9.25L52.60 9.25Q52.64 9.35 52.64 9.46L52.64 9.46L52.64 9.46Q51.95 9.72 50.97 9.74L50.97 9.74L50.97 9.74Q50.62 10.42 50.35 11.08L50.35 11.08L50.35 11.08Q50.08 11.75 49.89 12.36L49.89 12.36L49.89 12.36Q49.70 12.98 49.59 13.52L49.59 13.52L49.59 13.52Q49.49 14.07 49.49 14.50L49.49 14.50L49.49 14.50Q49.49 15.12 49.95 15.19L49.95 15.19L49.95 15.19Q50.37 15.13 50.75 14.98L50.75 14.98L50.75 14.98Q51.13 14.83 51.42 14.59L51.42 14.59L51.42 14.59Q51.51 14.71 51.52 14.80L51.52 14.80L51.52 14.80Q51.44 14.92 51.23 15.09L51.23 15.09L51.23 15.09Q51.03 15.26 50.79 15.42L50.79 15.42L50.79 15.42Q50.55 15.58 50.33 15.69L50.33 15.69L50.33 15.69Q50.11 15.81 49.99 15.82L49.99 15.82L49.99 15.82Q49.64 15.81 49.29 15.67L49.29 15.67L49.29 15.67Q48.94 15.53 48.66 15.32L48.66 15.32L48.66 15.32Q48.37 15.11 48.19 14.85L48.19 14.85L48.19 14.85Q48.01 14.59 48.01 14.34L48.01 14.34L48.01 14.34Q48.01 14 48.10 13.49L48.10 13.49L48.10 13.49Q48.19 12.98 48.36 12.38L48.36 12.38L48.36 12.38Q48.52 11.77 48.75 11.12L48.75 11.12L48.75 11.12Q48.97 10.46 49.24 9.81L49.24 9.81ZM57.55 9.38L57.55 9.38L57.55 9.38Q57.50 10.25 57.25 10.87L57.25 10.87L57.25 10.87Q56.99 11.49 56.52 11.96L56.52 11.96L56.52 11.96Q56.06 12.43 55.38 12.81L55.38 12.81L55.38 12.81Q54.71 13.19 53.82 13.54L53.82 13.54L53.82 13.54Q53.82 13.62 53.81 13.71L53.81 13.71L53.81 13.71Q53.80 13.80 53.80 13.90L53.80 13.90L53.80 13.90Q53.80 14.08 53.83 14.28L53.83 14.28L53.83 14.28Q53.86 14.48 53.93 14.64L53.93 14.64L53.93 14.64Q54.00 14.81 54.12 14.92L54.12 14.92L54.12 14.92Q54.25 15.02 54.45 15.02L54.45 15.02L54.45 15.02Q54.82 15.02 55.19 14.85L55.19 14.85L55.19 14.85Q55.55 14.69 55.88 14.44L55.88 14.44L55.88 14.44Q56.21 14.20 56.50 13.91L56.50 13.91L56.50 13.91Q56.78 13.62 57.01 13.38L57.01 13.38L57.01 13.38Q57.15 13.51 57.25 13.62L57.25 13.62L57.25 13.62Q56.62 14.46 55.87 15.02L55.87 15.02L55.87 15.02Q55.12 15.57 54.45 15.72L54.45 15.72L54.45 15.72Q53.48 15.61 52.94 15.02L52.94 15.02L52.94 15.02Q52.40 14.42 52.40 13.58L52.40 13.58L52.40 13.58Q52.40 13.01 52.56 12.41L52.56 12.41L52.56 12.41Q52.72 11.82 53.01 11.26L53.01 11.26L53.01 11.26Q53.30 10.71 53.68 10.22L53.68 10.22L53.68 10.22Q54.07 9.73 54.51 9.37L54.51 9.37L54.51 9.37Q54.95 9.00 55.42 8.79L55.42 8.79L55.42 8.79Q55.89 8.58 56.35 8.58L56.35 8.58L56.35 8.58Q56.99 8.67 57.55 9.38ZM56.59 9.84L56.59 9.84L56.59 9.84Q56.21 9.90 55.80 10.15L55.80 10.15L55.80 10.15Q55.40 10.40 55.04 10.82L55.04 10.82L55.04 10.82Q54.68 11.24 54.39 11.80L54.39 11.80L54.39 11.80Q54.10 12.36 53.93 13.01L53.93 13.01L53.93 13.01Q55.05 12.45 55.79 11.63L55.79 11.63L55.79 11.63Q56.53 10.81 56.59 9.84ZM57.86 14.90L57.86 14.90L57.86 14.90Q57.93 14.49 58.11 13.82L58.11 13.82L58.11 13.82Q58.28 13.16 58.52 12.41L58.52 12.41L58.52 12.41Q58.76 11.66 59.02 10.91L59.02 10.91L59.02 10.91Q59.29 10.15 59.54 9.55L59.54 9.55L59.54 9.55Q59.72 9.11 59.86 8.87L59.86 8.87L59.86 8.87Q60.00 8.62 60.17 8.46L60.17 8.46L60.17 8.46Q60.37 8.48 60.58 8.55L60.58 8.55L60.58 8.55Q60.79 8.62 60.98 8.72L60.98 8.72L60.98 8.72Q61.18 8.82 61.33 8.93L61.33 8.93L61.33 8.93Q61.49 9.03 61.57 9.13L61.57 9.13L61.57 9.13Q61.19 9.58 60.91 10.15L60.91 10.15L60.91 10.15Q60.62 10.72 60.33 11.62L60.33 11.62L60.33 11.62Q61.08 10.95 61.66 10.33L61.66 10.33L61.66 10.33Q62.24 9.72 62.75 8.96L62.75 8.96L62.75 8.96Q62.83 8.89 63.04 8.89L63.04 8.89L63.04 8.89Q63.24 8.89 63.42 8.95L63.42 8.95L63.42 8.95Q63.60 9.02 63.67 9.13L63.67 9.13L63.67 9.13Q63.42 9.80 63.42 10.46L63.42 10.46L63.42 10.46Q63.42 11.07 63.60 11.38L63.60 11.38L63.60 11.38Q63.59 11.47 63.41 11.70L63.41 11.70L63.41 11.70Q63.24 11.94 63.03 12.15L63.03 12.15L63.03 12.15Q62.65 11.96 62.36 11.61L62.36 11.61L62.36 11.61Q62.06 11.27 61.92 10.86L61.92 10.86L61.92 10.86Q61.26 11.33 60.80 11.77L60.80 11.77L60.80 11.77Q60.34 12.21 60.01 12.75L60.01 12.75L60.01 12.75Q59.68 13.29 59.45 13.99L59.45 13.99L59.45 13.99Q59.22 14.69 59.01 15.65L59.01 15.65L59.01 15.65Q58.88 15.64 58.71 15.56L58.71 15.56L58.71 15.56Q58.53 15.48 58.36 15.37L58.36 15.37L58.36 15.37Q58.18 15.26 58.04 15.13L58.04 15.13L58.04 15.13Q57.90 15.01 57.86 14.90ZM62.82 19.81L62.82 19.81L62.82 19.81Q62.62 19.75 62.59 19.39L62.59 19.39L62.59 19.39Q62.54 19.21 62.52 18.96L62.52 18.96L62.52 18.96Q62.50 18.70 62.50 18.38L62.50 18.38L62.50 18.38Q62.50 18.09 62.59 17.58L62.59 17.58L62.59 17.58Q62.69 17.07 62.87 16.42L62.87 16.42L62.87 16.42Q63.04 15.78 63.29 15.03L63.29 15.03L63.29 15.03Q63.55 14.28 63.85 13.51L63.85 13.51L63.85 13.51Q64.23 12.54 64.51 11.84L64.51 11.84L64.51 11.84Q64.79 11.13 64.98 10.61L64.98 10.61L64.98 10.61Q65.17 10.09 65.29 9.76L65.29 9.76L65.29 9.76Q65.41 9.42 65.48 9.18L65.48 9.18L65.48 9.18Q65.53 9.02 65.65 8.78L65.65 8.78L65.65 8.78Q65.76 8.54 65.91 8.29L65.91 8.29L65.91 8.29Q66.05 8.05 66.21 7.83L66.21 7.83L66.21 7.83Q66.36 7.62 66.49 7.50L66.49 7.50L66.49 7.50Q66.98 7.57 67.41 7.76L67.41 7.76L67.41 7.76Q67.84 7.94 67.94 8.11L67.94 8.11L67.94 8.11Q67.75 8.29 67.49 8.67L67.49 8.67L67.49 8.67Q67.24 9.06 67.00 9.51L67.00 9.51L67.00 9.51Q66.77 9.97 66.57 10.44L66.57 10.44L66.57 10.44Q66.37 10.92 66.28 11.28L66.28 11.28L66.28 11.28Q66.42 11.05 66.64 10.77L66.64 10.77L66.64 10.77Q66.86 10.49 67.33 10.00L67.33 10.00L67.33 10.00Q67.84 9.46 68.30 9.18L68.30 9.18L68.30 9.18Q68.75 8.89 69.09 8.89L69.09 8.89L69.09 8.89Q69.62 8.89 69.97 9.18L69.97 9.18L69.97 9.18Q70.31 9.48 70.31 9.94L70.31 9.94L70.31 9.94Q70.31 10.95 69.97 11.94L69.97 11.94L69.97 11.94Q69.64 12.92 69.01 13.72L69.01 13.72L69.01 13.72Q68.77 14.03 68.45 14.31L68.45 14.31L68.45 14.31Q68.12 14.59 67.77 14.80L67.77 14.80L67.77 14.80Q67.42 15.02 67.09 15.15L67.09 15.15L67.09 15.15Q66.75 15.27 66.49 15.27L66.49 15.27L66.49 15.27Q66.23 15.27 66.05 15.17L66.05 15.17L66.05 15.17Q65.86 15.06 65.79 14.91L65.79 14.91L65.79 14.91Q66.33 14.59 66.85 14.01L66.85 14.01L66.85 14.01Q67.37 13.44 67.81 12.69L67.81 12.69L67.81 12.69Q68.25 11.94 68.58 11.07L68.58 11.07L68.58 11.07Q68.91 10.21 69.08 9.31L69.08 9.31L69.08 9.31Q68.54 9.59 68.12 9.92L68.12 9.92L68.12 9.92Q67.69 10.25 67.27 10.78L67.27 10.78L67.27 10.78Q66.77 11.40 66.47 11.77L66.47 11.77L66.47 11.77Q66.18 12.15 65.99 12.42L65.99 12.42L65.99 12.42Q65.80 12.68 65.68 12.91L65.68 12.91L65.68 12.91Q65.56 13.15 65.42 13.48L65.42 13.48L65.42 13.48Q65.23 13.93 64.97 14.67L64.97 14.67L64.97 14.67Q64.71 15.40 64.44 16.31L64.44 16.31L64.44 16.31Q64.16 17.22 63.89 18.25L63.89 18.25L63.89 18.25Q63.62 19.28 63.36 20.30L63.36 20.30L63.36 20.30Q63.21 20.27 63.10 20.08L63.10 20.08L63.10 20.08Q62.99 19.95 62.94 19.89L62.94 19.89L62.94 19.89Q62.89 19.84 62.82 19.81ZM70.48 14.90L70.48 14.90L70.48 14.90Q70.55 14.49 70.72 13.82L70.72 13.82L70.72 13.82Q70.90 13.16 71.13 12.41L71.13 12.41L71.13 12.41Q71.37 11.66 71.64 10.91L71.64 10.91L71.64 10.91Q71.90 10.15 72.16 9.55L72.16 9.55L72.16 9.55Q72.34 9.11 72.48 8.87L72.48 8.87L72.48 8.87Q72.62 8.62 72.79 8.46L72.79 8.46L72.79 8.46Q72.98 8.48 73.19 8.55L73.19 8.55L73.19 8.55Q73.40 8.62 73.60 8.72L73.60 8.72L73.60 8.72Q73.79 8.82 73.95 8.93L73.95 8.93L73.95 8.93Q74.10 9.03 74.19 9.13L74.19 9.13L74.19 9.13Q73.81 9.58 73.52 10.15L73.52 10.15L73.52 10.15Q73.23 10.72 72.94 11.62L72.94 11.62L72.94 11.62Q73.70 10.95 74.28 10.33L74.28 10.33L74.28 10.33Q74.86 9.72 75.36 8.96L75.36 8.96L75.36 8.96Q75.45 8.89 75.66 8.89L75.66 8.89L75.66 8.89Q75.85 8.89 76.03 8.95L76.03 8.95L76.03 8.95Q76.22 9.02 76.29 9.13L76.29 9.13L76.29 9.13Q76.03 9.80 76.03 10.46L76.03 10.46L76.03 10.46Q76.03 11.07 76.22 11.38L76.22 11.38L76.22 11.38Q76.20 11.47 76.03 11.70L76.03 11.70L76.03 11.70Q75.85 11.94 75.64 12.15L75.64 12.15L75.64 12.15Q75.26 11.96 74.97 11.61L74.97 11.61L74.97 11.61Q74.68 11.27 74.54 10.86L74.54 10.86L74.54 10.86Q73.88 11.33 73.42 11.77L73.42 11.77L73.42 11.77Q72.95 12.21 72.63 12.75L72.63 12.75L72.63 12.75Q72.30 13.29 72.06 13.99L72.06 13.99L72.06 13.99Q71.83 14.69 71.62 15.65L71.62 15.65L71.62 15.65Q71.50 15.64 71.32 15.56L71.32 15.56L71.32 15.56Q71.15 15.48 70.97 15.37L70.97 15.37L70.97 15.37Q70.80 15.26 70.66 15.13L70.66 15.13L70.66 15.13Q70.52 15.01 70.48 14.90ZM76.47 14.24L76.47 14.24L76.47 14.24Q76.47 14.11 76.49 13.92L76.49 13.92L76.49 13.92Q76.51 13.73 76.57 13.42L76.57 13.42L76.57 13.42Q76.62 13.10 76.71 12.66L76.71 12.66L76.71 12.66Q76.80 12.21 76.94 11.58L76.94 11.58L76.94 11.58Q76.97 11.44 77.07 11.13L77.07 11.13L77.07 11.13Q77.17 10.82 77.33 10.48L77.33 10.48L77.33 10.48Q77.49 10.14 77.72 9.81L77.72 9.81L77.72 9.81Q77.95 9.49 78.27 9.34L78.27 9.34L78.27 9.34Q78.51 9.39 78.90 9.63L78.90 9.63L78.90 9.63Q79.30 9.86 79.58 10.26L79.58 10.26L79.58 10.26Q79.25 10.63 79.04 10.99L79.04 10.99L79.04 10.99Q78.82 11.35 78.64 11.75L78.64 11.75L78.64 11.75Q78.47 12.14 78.32 12.56L78.32 12.56L78.32 12.56Q78.18 12.98 77.99 13.44L77.99 13.44L77.99 13.44Q77.84 13.83 77.71 14.25L77.71 14.25L77.71 14.25Q77.59 14.66 77.57 14.97L77.57 14.97L77.57 14.97Q77.57 15.22 77.57 15.32L77.57 15.32L77.57 15.32Q77.56 15.43 77.49 15.43L77.49 15.43L77.49 15.43Q77.43 15.43 77.27 15.36L77.27 15.36L77.27 15.36Q77.10 15.29 76.92 15.14L76.92 15.14L76.92 15.14Q76.75 14.99 76.61 14.77L76.61 14.77L76.61 14.77Q76.47 14.55 76.47 14.24ZM79.14 8.16L79.14 8.16L79.14 8.16Q79.14 8.08 79.18 7.91L79.18 7.91L79.18 7.91Q79.11 7.84 79.06 7.70L79.06 7.70L79.06 7.70Q79.02 7.56 79.02 7.45L79.02 7.45L79.02 7.45Q79.02 7.32 79.05 7.11L79.05 7.11L79.05 7.11Q79.09 6.89 79.14 6.64L79.14 6.64L79.14 6.64Q79.20 6.38 79.28 6.11L79.28 6.11L79.28 6.11Q79.37 5.84 79.45 5.61L79.45 5.61L79.45 5.61Q79.62 5.61 79.86 5.71L79.86 5.71L79.86 5.71Q80.11 5.80 80.36 5.94L80.36 5.94L80.36 5.94Q80.61 6.09 80.82 6.27L80.82 6.27L80.82 6.27Q81.03 6.44 81.14 6.59L81.14 6.59L81.14 6.59Q80.99 6.75 80.74 7.02L80.74 7.02L80.74 7.02Q80.49 7.29 80.25 7.59L80.25 7.59L80.25 7.59Q80.01 7.90 79.81 8.16L79.81 8.16L79.81 8.16Q79.62 8.43 79.56 8.54L79.56 8.54L79.56 8.54Q79.39 8.51 79.27 8.39L79.27 8.39L79.27 8.39Q79.14 8.27 79.14 8.16ZM84.59 9.60L84.59 9.60L84.59 9.60Q84.57 9.87 84.50 10.16L84.50 10.16L84.50 10.16Q84.42 10.44 84.31 10.68L84.31 10.68L84.31 10.68Q84.20 10.91 84.07 11.06L84.07 11.06L84.07 11.06Q83.94 11.21 83.83 11.21L83.83 11.21L83.83 11.21Q83.68 11.20 83.65 11.00L83.65 11.00L83.65 11.00Q83.65 10.96 83.68 10.87L83.68 10.87L83.68 10.87Q83.72 10.78 83.76 10.67L83.76 10.67L83.76 10.67Q83.80 10.56 83.84 10.44L83.84 10.44L83.84 10.44Q83.87 10.33 83.87 10.25L83.87 10.25L83.87 10.25Q83.87 10.05 83.78 9.92L83.78 9.92L83.78 9.92Q83.69 9.79 83.54 9.79L83.54 9.79L83.54 9.79Q82.98 9.79 82.68 10.49L82.68 10.49L82.68 10.49Q82.39 11.19 82.39 12.54L82.39 12.54L82.39 12.54Q82.39 12.68 82.40 12.71L82.40 12.71L82.40 12.71Q82.70 12.70 82.93 12.69L82.93 12.69L82.93 12.69Q83.16 12.68 83.38 12.68L83.38 12.68L83.38 12.68Q83.40 12.71 83.40 12.80L83.40 12.80L83.40 12.80Q83.40 12.92 83.34 12.98L83.34 12.98L83.34 12.98Q83.02 13.05 82.83 13.10L82.83 13.10L82.83 13.10Q82.64 13.15 82.54 13.19L82.54 13.19L82.54 13.19Q82.45 13.23 82.42 13.28L82.42 13.28L82.42 13.28Q82.40 13.33 82.40 13.41L82.40 13.41L82.40 13.41Q82.40 13.52 82.41 13.64L82.41 13.64L82.41 13.64Q82.42 13.75 82.42 13.92L82.42 13.92L82.42 13.92Q82.42 15.09 81.78 15.81L81.78 15.81L81.78 15.81Q81.14 16.52 80.01 16.63L80.01 16.63L80.01 16.63Q79.81 16.62 79.60 16.52L79.60 16.52L79.60 16.52Q79.39 16.42 79.20 16.27L79.20 16.27L79.20 16.27Q79.02 16.11 78.88 15.93L78.88 15.93L78.88 15.93Q78.74 15.74 78.68 15.54L78.68 15.54L78.68 15.54Q78.68 15.01 78.90 14.53L78.90 14.53L78.90 14.53Q79.13 14.04 79.51 13.67L79.51 13.67L79.51 13.67Q79.90 13.30 80.42 13.07L80.42 13.07L80.42 13.07Q80.95 12.84 81.56 12.80L81.56 12.80L81.56 12.80Q81.56 12.45 81.49 12.11L81.49 12.11L81.49 12.11Q81.42 11.77 81.35 11.46L81.35 11.46L81.35 11.46Q81.27 11.14 81.20 10.84L81.20 10.84L81.20 10.84Q81.13 10.54 81.13 10.25L81.13 10.25L81.13 10.25Q81.13 9.87 81.28 9.50L81.28 9.50L81.28 9.50Q81.44 9.13 81.69 8.81L81.69 8.81L81.69 8.81Q81.94 8.50 82.28 8.27L82.28 8.27L82.28 8.27Q82.61 8.05 82.98 7.97L82.98 7.97L82.98 7.97Q83.13 8.01 83.39 8.21L83.39 8.21L83.39 8.21Q83.65 8.41 83.90 8.67L83.90 8.67L83.90 8.67Q84.15 8.92 84.35 9.18L84.35 9.18L84.35 9.18Q84.55 9.44 84.59 9.60ZM79.97 15.99L79.97 15.99L79.97 15.99Q80.30 15.85 80.60 15.58L80.60 15.58L80.60 15.58Q80.91 15.32 81.13 14.98L81.13 14.98L81.13 14.98Q81.35 14.64 81.49 14.27L81.49 14.27L81.49 14.27Q81.62 13.89 81.62 13.52L81.62 13.52L81.62 13.52Q81.34 13.57 81.00 13.78L81.00 13.78L81.00 13.78Q80.67 14 80.37 14.30L80.37 14.30L80.37 14.30Q80.08 14.60 79.88 14.92L79.88 14.92L79.88 14.92Q79.69 15.25 79.69 15.48L79.69 15.48L79.69 15.48Q79.69 15.79 79.97 15.99ZM89.61 9.38L89.61 9.38L89.61 9.38Q89.56 10.25 89.31 10.87L89.31 10.87L89.31 10.87Q89.05 11.49 88.58 11.96L88.58 11.96L88.58 11.96Q88.12 12.43 87.44 12.81L87.44 12.81L87.44 12.81Q86.77 13.19 85.88 13.54L85.88 13.54L85.88 13.54Q85.88 13.62 85.87 13.71L85.87 13.71L85.87 13.71Q85.86 13.80 85.86 13.90L85.86 13.90L85.86 13.90Q85.86 14.08 85.89 14.28L85.89 14.28L85.89 14.28Q85.92 14.48 85.99 14.64L85.99 14.64L85.99 14.64Q86.06 14.81 86.18 14.92L86.18 14.92L86.18 14.92Q86.31 15.02 86.51 15.02L86.51 15.02L86.51 15.02Q86.88 15.02 87.25 14.85L87.25 14.85L87.25 14.85Q87.61 14.69 87.94 14.44L87.94 14.44L87.94 14.44Q88.27 14.20 88.56 13.91L88.56 13.91L88.56 13.91Q88.84 13.62 89.07 13.38L89.07 13.38L89.07 13.38Q89.21 13.51 89.31 13.62L89.31 13.62L89.31 13.62Q88.68 14.46 87.93 15.02L87.93 15.02L87.93 15.02Q87.18 15.57 86.51 15.72L86.51 15.72L86.51 15.72Q85.54 15.61 85.00 15.02L85.00 15.02L85.00 15.02Q84.46 14.42 84.46 13.58L84.46 13.58L84.46 13.58Q84.46 13.01 84.62 12.41L84.62 12.41L84.62 12.41Q84.78 11.82 85.07 11.26L85.07 11.26L85.07 11.26Q85.36 10.71 85.74 10.22L85.74 10.22L85.74 10.22Q86.13 9.73 86.57 9.37L86.57 9.37L86.57 9.37Q87.01 9.00 87.48 8.79L87.48 8.79L87.48 8.79Q87.95 8.58 88.41 8.58L88.41 8.58L88.41 8.58Q89.05 8.67 89.61 9.38ZM88.65 9.84L88.65 9.84L88.65 9.84Q88.27 9.90 87.86 10.15L87.86 10.15L87.86 10.15Q87.46 10.40 87.10 10.82L87.10 10.82L87.10 10.82Q86.74 11.24 86.45 11.80L86.45 11.80L86.45 11.80Q86.16 12.36 85.99 13.01L85.99 13.01L85.99 13.01Q87.11 12.45 87.85 11.63L87.85 11.63L87.85 11.63Q88.59 10.81 88.65 9.84ZM95.09 9.60L95.09 9.60L95.09 9.60Q95.07 9.87 95.00 10.16L95.00 10.16L95.00 10.16Q94.92 10.44 94.81 10.68L94.81 10.68L94.81 10.68Q94.70 10.91 94.57 11.06L94.57 11.06L94.57 11.06Q94.44 11.21 94.33 11.21L94.33 11.21L94.33 11.21Q94.18 11.20 94.15 11.00L94.15 11.00L94.15 11.00Q94.15 10.96 94.18 10.87L94.18 10.87L94.18 10.87Q94.22 10.78 94.26 10.67L94.26 10.67L94.26 10.67Q94.30 10.56 94.34 10.44L94.34 10.44L94.34 10.44Q94.37 10.33 94.37 10.25L94.37 10.25L94.37 10.25Q94.37 10.05 94.28 9.92L94.28 9.92L94.28 9.92Q94.19 9.79 94.04 9.79L94.04 9.79L94.04 9.79Q93.48 9.79 93.18 10.49L93.18 10.49L93.18 10.49Q92.89 11.19 92.89 12.54L92.89 12.54L92.89 12.54Q92.89 12.68 92.90 12.71L92.90 12.71L92.90 12.71Q93.20 12.70 93.43 12.69L93.43 12.69L93.43 12.69Q93.66 12.68 93.88 12.68L93.88 12.68L93.88 12.68Q93.90 12.71 93.90 12.80L93.90 12.80L93.90 12.80Q93.90 12.92 93.84 12.98L93.84 12.98L93.84 12.98Q93.52 13.05 93.33 13.10L93.33 13.10L93.33 13.10Q93.14 13.15 93.04 13.19L93.04 13.19L93.04 13.19Q92.95 13.23 92.92 13.28L92.92 13.28L92.92 13.28Q92.90 13.33 92.90 13.41L92.90 13.41L92.90 13.41Q92.90 13.52 92.91 13.64L92.91 13.64L92.91 13.64Q92.92 13.75 92.92 13.92L92.92 13.92L92.92 13.92Q92.92 15.09 92.28 15.81L92.28 15.81L92.28 15.81Q91.64 16.52 90.51 16.63L90.51 16.63L90.51 16.63Q90.31 16.62 90.10 16.52L90.10 16.52L90.10 16.52Q89.89 16.42 89.70 16.27L89.70 16.27L89.70 16.27Q89.52 16.11 89.38 15.93L89.38 15.93L89.38 15.93Q89.24 15.74 89.18 15.54L89.18 15.54L89.18 15.54Q89.18 15.01 89.40 14.53L89.40 14.53L89.40 14.53Q89.63 14.04 90.01 13.67L90.01 13.67L90.01 13.67Q90.40 13.30 90.92 13.07L90.92 13.07L90.92 13.07Q91.45 12.84 92.06 12.80L92.06 12.80L92.06 12.80Q92.06 12.45 91.99 12.11L91.99 12.11L91.99 12.11Q91.92 11.77 91.85 11.46L91.85 11.46L91.85 11.46Q91.77 11.14 91.70 10.84L91.70 10.84L91.70 10.84Q91.63 10.54 91.63 10.25L91.63 10.25L91.63 10.25Q91.63 9.87 91.78 9.50L91.78 9.50L91.78 9.50Q91.94 9.13 92.19 8.81L92.19 8.81L92.19 8.81Q92.44 8.50 92.78 8.27L92.78 8.27L92.78 8.27Q93.11 8.05 93.48 7.97L93.48 7.97L93.48 7.97Q93.63 8.01 93.89 8.21L93.89 8.21L93.89 8.21Q94.15 8.41 94.40 8.67L94.40 8.67L94.40 8.67Q94.65 8.92 94.85 9.18L94.85 9.18L94.85 9.18Q95.05 9.44 95.09 9.60ZM90.47 15.99L90.47 15.99L90.47 15.99Q90.80 15.85 91.10 15.58L91.10 15.58L91.10 15.58Q91.41 15.32 91.63 14.98L91.63 14.98L91.63 14.98Q91.85 14.64 91.99 14.27L91.99 14.27L91.99 14.27Q92.12 13.89 92.12 13.52L92.12 13.52L92.12 13.52Q91.84 13.57 91.50 13.78L91.50 13.78L91.50 13.78Q91.17 14 90.87 14.30L90.87 14.30L90.87 14.30Q90.58 14.60 90.38 14.92L90.38 14.92L90.38 14.92Q90.19 15.25 90.19 15.48L90.19 15.48L90.19 15.48Q90.19 15.79 90.47 15.99Z"></path></g><defs data-v-423bf9ae=""><linearGradient data-v-423bf9ae="" gradientTransform="rotate(25)" id="15291529-9b00-43bc-90fd-1d469fe478f6" x1="0%" y1="0%" x2="100%" y2="0%"><stop data-v-423bf9ae="" offset="0%" style="stop-color: rgb(40, 134, 66); stop-opacity: 1;"></stop><stop data-v-423bf9ae="" offset="100%" style="stop-color: rgb(39, 253, 253); stop-opacity: 1;"></stop></linearGradient></defs><g data-v-423bf9ae="" id="b6bc0587-0d8d-4f28-8008-83bc86b6d773" transform="matrix(2.8125,0,0,2.8125,0,0)" stroke="none" fill="url(#15291529-9b00-43bc-90fd-1d469fe478f6)"><path d="M29.625 1l-3.099 3.172H4.054v23.657h22.472L29.625 31H1V1h28.625M32 0H0v32h32l-5.054-5.172H5.054V5.172h21.893L32 0z"></path><path d="M21.038 10.962v10.076H10.962V10.962h10.076m1-1H9.962v12.076h12.076V9.962z"></path></g><!----><g data-v-423bf9ae="" id="66c11832-fc19-42cb-b1cc-afae13366591" fill="#0C3D33" transform="matrix(0.8133590605513314,0,0,0.8133590605513314,109.57705631427473,56.917367843893445)"><path d="M8.43 12.21C8.40 12.18 8.36 12.15 8.32 12.15C8.29 12.15 8.27 12.15 8.25 12.17C8.23 12.18 8.20 12.21 8.18 12.22C7.98 12.40 7.77 12.56 7.57 12.70C7.38 12.84 7.17 12.94 6.93 13.03C6.69 13.13 6.44 13.20 6.16 13.24C5.88 13.29 5.57 13.31 5.22 13.31C4.66 13.31 4.12 13.22 3.64 13.01C3.15 12.81 2.74 12.52 2.39 12.14C2.04 11.76 1.75 11.28 1.55 10.74C1.36 10.19 1.26 9.56 1.26 8.86C1.26 8.18 1.36 7.56 1.55 7.01C1.76 6.47 2.04 6.01 2.41 5.61C2.77 5.24 3.21 4.94 3.71 4.73C4.21 4.52 4.76 4.42 5.36 4.42C6.26 4.42 7.08 4.56 7.81 4.89C7.85 5.78 7.90 6.30 7.90 6.41C7.91 6.64 7.99 6.75 8.19 6.75L8.53 6.75L8.53 4.51C7.35 4.03 6.29 3.81 5.36 3.81C4.65 3.81 4.00 3.92 3.40 4.17C2.81 4.42 2.28 4.76 1.86 5.21C1.43 5.66 1.11 6.19 0.87 6.80C0.63 7.42 0.52 8.11 0.52 8.86C0.52 9.63 0.64 10.32 0.87 10.95C1.09 11.58 1.41 12.10 1.82 12.54C2.23 12.99 2.72 13.33 3.29 13.57C3.86 13.80 4.48 13.93 5.17 13.93C5.57 13.93 5.95 13.90 6.30 13.83C6.64 13.76 6.96 13.66 7.25 13.54C7.53 13.41 7.80 13.26 8.04 13.09C8.27 12.91 8.50 12.73 8.71 12.50ZM25.98 8.86C25.98 8.11 25.86 7.41 25.63 6.79C25.41 6.17 25.09 5.64 24.67 5.19C24.25 4.75 23.76 4.40 23.18 4.16C22.61 3.92 21.95 3.79 21.25 3.79C20.55 3.79 19.92 3.92 19.35 4.16C18.77 4.40 18.27 4.75 17.85 5.19C17.43 5.64 17.11 6.17 16.88 6.79C16.66 7.41 16.53 8.11 16.53 8.86C16.53 9.63 16.66 10.33 16.88 10.95C17.11 11.56 17.43 12.10 17.85 12.54C18.27 12.99 18.77 13.33 19.35 13.57C19.92 13.80 20.55 13.93 21.25 13.93C21.95 13.93 22.61 13.80 23.18 13.57C23.76 13.33 24.25 12.99 24.67 12.54C25.09 12.10 25.41 11.56 25.63 10.95C25.86 10.33 25.98 9.63 25.98 8.86ZM25.23 8.86C25.23 9.56 25.14 10.18 24.95 10.72C24.75 11.27 24.49 11.75 24.14 12.12C23.79 12.50 23.37 12.81 22.88 13.01C22.39 13.20 21.85 13.30 21.25 13.30C20.66 13.30 20.13 13.20 19.64 13.01C19.15 12.81 18.73 12.50 18.38 12.12C18.03 11.75 17.75 11.27 17.56 10.72C17.36 10.18 17.28 9.56 17.28 8.86C17.28 8.18 17.36 7.55 17.56 7.00C17.75 6.45 18.03 5.98 18.38 5.60C18.73 5.22 19.15 4.91 19.64 4.72C20.13 4.52 20.66 4.41 21.25 4.41C21.85 4.41 22.39 4.52 22.88 4.72C23.37 4.91 23.79 5.22 24.14 5.60C24.49 5.98 24.75 6.45 24.95 7.00C25.14 7.55 25.23 8.18 25.23 8.86ZM45.85 4.44C46.03 4.42 46.13 4.34 46.13 4.19L46.13 3.92L44.95 3.92L44.45 3.92C44.38 3.92 44.34 3.92 44.30 3.93C44.25 3.95 44.23 3.99 44.18 4.05L40.29 10.92C40.25 10.99 40.22 11.06 40.19 11.13C40.17 11.20 40.14 11.28 40.11 11.35C40.05 11.20 40.00 11.06 39.93 10.93L35.92 4.05C35.88 3.99 35.85 3.95 35.81 3.93C35.77 3.92 35.73 3.92 35.66 3.92L35.17 3.92L33.98 3.92L33.98 4.19C33.98 4.34 34.08 4.42 34.26 4.44L34.40 4.44C34.47 4.44 34.57 4.45 34.71 4.45C34.85 4.45 35 4.47 35.17 4.47L35.17 13.26C35 13.26 34.85 13.27 34.71 13.27C34.57 13.27 34.47 13.29 34.40 13.29L34.26 13.29C34.08 13.30 33.98 13.38 33.98 13.54L33.98 13.82L35.17 13.82L35.78 13.82L37.00 13.82L37.00 13.54C37.00 13.38 36.90 13.30 36.72 13.29L36.58 13.29C36.51 13.29 36.40 13.27 36.26 13.27C36.12 13.27 35.95 13.26 35.78 13.26L35.78 5.38C35.78 5.25 35.78 5.12 35.77 4.98L39.77 11.91C39.84 12.04 39.94 12.10 40.05 12.10L40.17 12.10C40.29 12.10 40.38 12.04 40.45 11.91L44.34 4.98C44.32 5.12 44.32 5.25 44.32 5.38L44.32 13.26C44.16 13.26 43.99 13.27 43.85 13.27C43.71 13.27 43.60 13.29 43.53 13.29L43.39 13.29C43.20 13.30 43.11 13.38 43.11 13.54L43.11 13.82L44.32 13.82L44.95 13.82L46.13 13.82L46.13 13.54C46.13 13.38 46.03 13.30 45.85 13.29L45.72 13.29C45.65 13.29 45.54 13.27 45.40 13.27C45.26 13.27 45.12 13.26 44.95 13.26L44.95 4.47C45.12 4.47 45.26 4.45 45.40 4.45C45.54 4.45 45.65 4.44 45.72 4.44ZM66.35 4.44C66.53 4.42 66.63 4.34 66.63 4.19L66.63 3.92L65.45 3.92L64.95 3.92C64.88 3.92 64.83 3.92 64.79 3.93C64.75 3.95 64.72 3.99 64.68 4.05L60.79 10.92C60.75 10.99 60.72 11.06 60.69 11.13C60.66 11.20 60.63 11.28 60.61 11.35C60.55 11.20 60.49 11.06 60.42 10.93L56.42 4.05C56.38 3.99 56.35 3.95 56.31 3.93C56.27 3.92 56.22 3.92 56.15 3.92L55.66 3.92L54.47 3.92L54.47 4.19C54.47 4.34 54.57 4.42 54.75 4.44L54.89 4.44C54.96 4.44 55.06 4.45 55.20 4.45C55.34 4.45 55.50 4.47 55.66 4.47L55.66 13.26C55.50 13.26 55.34 13.27 55.20 13.27C55.06 13.27 54.96 13.29 54.89 13.29L54.75 13.29C54.57 13.30 54.47 13.38 54.47 13.54L54.47 13.82L55.66 13.82L56.28 13.82L57.50 13.82L57.50 13.54C57.50 13.38 57.40 13.30 57.22 13.29L57.08 13.29C57.01 13.29 56.90 13.27 56.76 13.27C56.62 13.27 56.45 13.26 56.28 13.26L56.28 5.38C56.28 5.25 56.28 5.12 56.27 4.98L60.27 11.91C60.34 12.04 60.44 12.10 60.55 12.10L60.66 12.10C60.79 12.10 60.87 12.04 60.94 11.91L64.83 4.98C64.82 5.12 64.82 5.25 64.82 5.38L64.82 13.26C64.65 13.26 64.48 13.27 64.34 13.27C64.20 13.27 64.09 13.29 64.02 13.29L63.88 13.29C63.70 13.30 63.60 13.38 63.60 13.54L63.60 13.82L64.82 13.82L65.45 13.82L66.63 13.82L66.63 13.54C66.63 13.38 66.53 13.30 66.35 13.29L66.22 13.29C66.15 13.29 66.04 13.27 65.90 13.27C65.76 13.27 65.62 13.26 65.45 13.26L65.45 4.47C65.62 4.47 65.76 4.45 65.90 4.45C66.04 4.45 66.15 4.44 66.22 4.44ZM77.78 4.44C77.97 4.42 78.05 4.34 78.05 4.19L78.05 3.91L76.87 3.91L76.16 3.91L74.97 3.91L74.97 4.19C74.97 4.34 75.07 4.42 75.25 4.44L75.39 4.44C75.46 4.44 75.56 4.45 75.70 4.45C75.84 4.45 75.99 4.47 76.16 4.47L76.16 13.26C75.99 13.26 75.84 13.27 75.70 13.27C75.56 13.27 75.46 13.29 75.39 13.29L75.25 13.29C75.07 13.30 74.97 13.38 74.97 13.54L74.97 13.82L76.16 13.82L76.87 13.82L78.05 13.82L78.05 13.54C78.05 13.38 77.97 13.30 77.78 13.29L77.64 13.29C77.57 13.29 77.48 13.27 77.34 13.27C77.20 13.27 77.04 13.26 76.87 13.26L76.87 4.47C77.04 4.47 77.20 4.45 77.34 4.45C77.48 4.45 77.57 4.44 77.64 4.44ZM93.91 3.92L93.72 3.92L86.42 3.92L86.21 3.92L86.11 3.92L86.11 5.96L86.46 5.96C86.66 5.96 86.74 5.85 86.76 5.63C86.76 5.53 86.79 5.17 86.81 4.52L89.71 4.52L89.71 13.26C89.54 13.26 89.40 13.27 89.26 13.27C89.12 13.27 89.01 13.29 88.94 13.29L88.82 13.29C88.63 13.30 88.54 13.38 88.54 13.54L88.54 13.82L89.71 13.82L90.43 13.82L91.62 13.82L91.62 13.54C91.62 13.38 91.52 13.30 91.34 13.29L91.20 13.29C91.13 13.29 91.03 13.27 90.89 13.27C90.75 13.27 90.59 13.26 90.43 13.26L90.43 4.52L93.31 4.52C93.35 5.24 93.37 5.60 93.37 5.63C93.38 5.85 93.48 5.96 93.67 5.96L94.01 5.96L94.01 3.92ZM103.31 3.92L102.12 3.92L102.12 4.19C102.12 4.34 102.21 4.42 102.40 4.44L102.54 4.44C102.61 4.44 102.70 4.45 102.84 4.45C102.98 4.45 103.14 4.47 103.31 4.47L103.31 13.26C103.14 13.26 102.98 13.27 102.84 13.27C102.70 13.27 102.61 13.29 102.54 13.29L102.40 13.29C102.21 13.30 102.13 13.38 102.13 13.54L102.13 13.82L103.31 13.82L109.24 13.82L109.24 13.22L109.24 11.76L108.89 11.76C108.70 11.76 108.61 11.89 108.60 12.11C108.60 12.14 108.58 12.19 108.58 12.29C108.58 12.39 108.58 12.53 108.57 12.74C108.56 12.95 108.54 13.09 108.54 13.22L104.02 13.22L104.02 9.09L107.97 9.09L107.97 8.51L104.02 8.51L104.02 4.51L108.54 4.51C108.57 5.12 108.60 5.50 108.60 5.63C108.61 5.85 108.70 5.96 108.89 5.96L109.24 5.96L109.24 4.51L109.24 3.92ZM126.83 6.80C126.60 6.19 126.28 5.68 125.86 5.25C125.44 4.82 124.95 4.48 124.38 4.26C123.80 4.03 123.14 3.92 122.44 3.92L119.01 3.92L117.82 3.92L117.82 4.19C117.82 4.34 117.92 4.42 118.10 4.44L118.24 4.44C118.31 4.44 118.41 4.45 118.55 4.45C118.69 4.45 118.85 4.47 119.01 4.47L119.01 13.26C118.85 13.26 118.69 13.27 118.55 13.27C118.41 13.27 118.31 13.29 118.24 13.29L118.10 13.29C117.92 13.30 117.82 13.38 117.82 13.54L117.82 13.82L119.01 13.82L122.44 13.82C123.14 13.82 123.80 13.71 124.38 13.48C124.95 13.26 125.44 12.92 125.86 12.49C126.28 12.05 126.60 11.54 126.83 10.92C127.05 10.30 127.18 9.63 127.18 8.86C127.18 8.11 127.05 7.42 126.83 6.80ZM126.14 10.72C125.94 11.27 125.69 11.72 125.34 12.10C124.99 12.47 124.57 12.75 124.08 12.95C123.59 13.15 123.05 13.24 122.44 13.24L119.73 13.24L119.73 4.49L122.44 4.49C123.05 4.49 123.59 4.59 124.08 4.79C124.57 4.98 124.99 5.26 125.34 5.64C125.69 6.02 125.94 6.47 126.14 7.01C126.34 7.56 126.43 8.18 126.43 8.86C126.43 9.56 126.34 10.18 126.14 10.72ZM152.96 3.92L152.61 3.92L147.03 3.92L145.84 3.92L145.84 4.19C145.84 4.34 145.94 4.42 146.12 4.44L146.26 4.44C146.33 4.44 146.43 4.45 146.57 4.45C146.71 4.45 146.86 4.47 147.03 4.47L147.03 13.26C146.86 13.26 146.71 13.27 146.57 13.27C146.43 13.27 146.33 13.29 146.26 13.29L146.12 13.29C145.94 13.30 145.84 13.38 145.84 13.54L145.84 13.82L147.03 13.82L147.74 13.82L148.92 13.82L148.92 13.54C148.92 13.38 148.83 13.30 148.65 13.29L148.51 13.29C148.44 13.29 148.34 13.27 148.20 13.27C148.06 13.27 147.91 13.26 147.74 13.26L147.74 9.27L151.44 9.27L151.44 8.67L147.74 8.67L147.74 4.51L152.35 4.51C152.38 5.18 152.40 5.56 152.40 5.63C152.42 5.85 152.52 5.96 152.71 5.96L153.05 5.96L153.05 3.92ZM170.44 8.86C170.44 8.11 170.31 7.41 170.09 6.79C169.86 6.17 169.54 5.64 169.12 5.19C168.70 4.75 168.21 4.40 167.64 4.16C167.06 3.92 166.40 3.79 165.70 3.79C165.00 3.79 164.37 3.92 163.80 4.16C163.23 4.40 162.72 4.75 162.30 5.19C161.88 5.64 161.56 6.17 161.34 6.79C161.11 7.41 160.99 8.11 160.99 8.86C160.99 9.63 161.11 10.33 161.34 10.95C161.56 11.56 161.88 12.10 162.30 12.54C162.72 12.99 163.23 13.33 163.80 13.57C164.37 13.80 165.00 13.93 165.70 13.93C166.40 13.93 167.06 13.80 167.64 13.57C168.21 13.33 168.70 12.99 169.12 12.54C169.54 12.10 169.86 11.56 170.09 10.95C170.31 10.33 170.44 9.63 170.44 8.86ZM169.68 8.86C169.68 9.56 169.60 10.18 169.40 10.72C169.20 11.27 168.94 11.75 168.59 12.12C168.24 12.50 167.82 12.81 167.33 13.01C166.84 13.20 166.31 13.30 165.70 13.30C165.12 13.30 164.58 13.20 164.09 13.01C163.60 12.81 163.18 12.50 162.83 12.12C162.48 11.75 162.20 11.27 162.01 10.72C161.81 10.18 161.73 9.56 161.73 8.86C161.73 8.18 161.81 7.55 162.01 7.00C162.20 6.45 162.48 5.98 162.83 5.60C163.18 5.22 163.60 4.91 164.09 4.72C164.58 4.52 165.12 4.41 165.70 4.41C166.31 4.41 166.84 4.52 167.33 4.72C167.82 4.91 168.24 5.22 168.59 5.60C168.94 5.98 169.20 6.45 169.40 7.00C169.60 7.55 169.68 8.18 169.68 8.86ZM186.70 13.29L186.61 13.29L186.42 13.29C186.34 13.29 186.26 13.27 186.17 13.27L183.20 9.53C183.12 9.42 183.01 9.32 182.90 9.25C183.33 9.21 183.72 9.11 184.07 8.96C184.42 8.81 184.70 8.61 184.95 8.37C185.19 8.13 185.39 7.85 185.51 7.55C185.64 7.24 185.71 6.89 185.71 6.51C185.71 5.66 185.43 5.03 184.87 4.58C184.31 4.14 183.46 3.92 182.31 3.92L179.90 3.92L178.72 3.92L178.72 4.19C178.72 4.34 178.81 4.42 178.99 4.44L179.13 4.44C179.20 4.44 179.30 4.45 179.44 4.45C179.58 4.45 179.73 4.47 179.90 4.47L179.90 13.26C179.73 13.26 179.58 13.27 179.44 13.27C179.30 13.27 179.20 13.29 179.13 13.29L178.99 13.29C178.81 13.30 178.71 13.38 178.71 13.54L178.71 13.82L179.90 13.82L180.61 13.82L181.79 13.82L181.79 13.54C181.79 13.38 181.69 13.30 181.51 13.29L181.37 13.29C181.30 13.29 181.20 13.27 181.06 13.27C180.92 13.27 180.78 13.26 180.61 13.26L180.61 9.34L181.79 9.34C181.99 9.34 182.13 9.35 182.21 9.39C182.29 9.44 182.38 9.52 182.46 9.62L185.64 13.64C185.70 13.71 185.74 13.75 185.79 13.78C185.85 13.80 185.92 13.82 185.99 13.82L186.06 13.82L186.61 13.82L186.97 13.82L186.97 13.54C186.97 13.38 186.89 13.30 186.70 13.29ZM182.21 8.81L180.61 8.81L180.61 4.48L182.31 4.48C183.19 4.48 183.86 4.66 184.32 5.00C184.79 5.33 185.01 5.87 185.01 6.57C185.01 6.92 184.95 7.21 184.83 7.49C184.70 7.77 184.51 7.99 184.27 8.19C184.03 8.39 183.74 8.55 183.39 8.65C183.04 8.75 182.64 8.81 182.21 8.81ZM211.78 4.68C211.19 4.17 210.31 3.92 209.15 3.92L206.74 3.92L205.55 3.92L205.55 4.19C205.55 4.34 205.65 4.42 205.83 4.44L205.97 4.44C206.04 4.44 206.14 4.45 206.28 4.45C206.42 4.45 206.57 4.47 206.74 4.47L206.74 13.26C206.57 13.26 206.42 13.27 206.28 13.27C206.14 13.27 206.04 13.29 205.97 13.29L205.83 13.29C205.65 13.30 205.55 13.38 205.55 13.54L205.55 13.82L206.74 13.82L207.45 13.82L208.63 13.82L208.63 13.54C208.63 13.38 208.53 13.30 208.35 13.29L208.22 13.29C208.15 13.29 208.04 13.27 207.90 13.27C207.76 13.27 207.62 13.26 207.45 13.26L207.45 9.83L209.15 9.83C209.69 9.83 210.18 9.74 210.62 9.60C211.05 9.45 211.41 9.25 211.72 8.99C212.03 8.72 212.27 8.41 212.42 8.05C212.59 7.69 212.66 7.29 212.66 6.86C212.66 5.92 212.37 5.18 211.78 4.68ZM211.75 7.81C211.62 8.11 211.44 8.36 211.20 8.57C210.97 8.78 210.67 8.95 210.32 9.07C209.97 9.20 209.58 9.25 209.15 9.25L207.45 9.25L207.45 4.48L209.15 4.48C210.07 4.48 210.77 4.69 211.25 5.10C211.71 5.50 211.95 6.09 211.95 6.85C211.95 7.20 211.88 7.52 211.75 7.81ZM229.17 3.92L228.45 3.92L227.09 3.92L227.09 4.19C227.09 4.34 227.19 4.42 227.37 4.44L227.54 4.44C227.64 4.44 227.78 4.45 227.95 4.45C228.12 4.45 228.28 4.47 228.45 4.47L228.45 10.04C228.45 10.50 228.38 10.92 228.24 11.33C228.10 11.73 227.91 12.08 227.64 12.38C227.37 12.67 227.07 12.89 226.69 13.06C226.31 13.23 225.89 13.31 225.41 13.31C224.94 13.31 224.50 13.23 224.13 13.06C223.75 12.89 223.43 12.66 223.17 12.36C222.91 12.07 222.73 11.72 222.59 11.33C222.45 10.93 222.38 10.50 222.38 10.04L222.38 4.47C222.54 4.47 222.71 4.45 222.88 4.45C223.05 4.45 223.19 4.44 223.29 4.44L223.45 4.44C223.64 4.42 223.73 4.34 223.73 4.19L223.73 3.92L222.38 3.92L221.66 3.92L220.49 3.92L220.49 4.19C220.49 4.34 220.57 4.42 220.75 4.44L220.89 4.44C220.96 4.44 221.06 4.45 221.20 4.45C221.34 4.45 221.49 4.47 221.66 4.47L221.66 10.04C221.66 10.58 221.75 11.09 221.91 11.56C222.08 12.04 222.33 12.46 222.66 12.81C222.98 13.16 223.38 13.44 223.85 13.64C224.31 13.83 224.84 13.93 225.41 13.93C225.99 13.93 226.51 13.83 226.97 13.64C227.43 13.44 227.84 13.16 228.16 12.81C228.48 12.46 228.73 12.04 228.90 11.56C229.07 11.09 229.17 10.58 229.17 10.04L229.17 4.47C229.33 4.47 229.47 4.45 229.61 4.45C229.75 4.45 229.87 4.44 229.94 4.44L230.06 4.44C230.24 4.42 230.34 4.34 230.34 4.19L230.34 3.92ZM246.36 13.29L246.26 13.29L246.08 13.29C245.99 13.29 245.91 13.27 245.83 13.27L242.86 9.53C242.77 9.42 242.66 9.32 242.55 9.25C242.98 9.21 243.38 9.11 243.73 8.96C244.08 8.81 244.36 8.61 244.61 8.37C244.85 8.13 245.04 7.85 245.17 7.55C245.29 7.24 245.36 6.89 245.36 6.51C245.36 5.66 245.08 5.03 244.52 4.58C243.96 4.14 243.11 3.92 241.96 3.92L239.55 3.92L238.38 3.92L238.38 4.19C238.38 4.34 238.46 4.42 238.64 4.44L238.78 4.44C238.85 4.44 238.95 4.45 239.09 4.45C239.23 4.45 239.39 4.47 239.55 4.47L239.55 13.26C239.39 13.26 239.23 13.27 239.09 13.27C238.95 13.27 238.85 13.29 238.78 13.29L238.64 13.29C238.46 13.30 238.36 13.38 238.36 13.54L238.36 13.82L239.55 13.82L240.27 13.82L241.44 13.82L241.44 13.54C241.44 13.38 241.35 13.30 241.16 13.29L241.02 13.29C240.95 13.29 240.86 13.27 240.72 13.27C240.58 13.27 240.44 13.26 240.27 13.26L240.27 9.34L241.44 9.34C241.64 9.34 241.78 9.35 241.86 9.39C241.95 9.44 242.03 9.52 242.12 9.62L245.29 13.64C245.35 13.71 245.39 13.75 245.45 13.78C245.50 13.80 245.57 13.82 245.64 13.82L245.71 13.82L246.26 13.82L246.62 13.82L246.62 13.54C246.62 13.38 246.54 13.30 246.36 13.29ZM241.86 8.81L240.27 8.81L240.27 4.48L241.96 4.48C242.84 4.48 243.52 4.66 243.98 5.00C244.44 5.33 244.66 5.87 244.66 6.57C244.66 6.92 244.61 7.21 244.48 7.49C244.36 7.77 244.16 7.99 243.92 8.19C243.68 8.39 243.39 8.55 243.04 8.65C242.69 8.75 242.30 8.81 241.86 8.81ZM256.02 3.92L254.83 3.92L254.83 4.19C254.83 4.34 254.93 4.42 255.11 4.44L255.25 4.44C255.32 4.44 255.42 4.45 255.56 4.45C255.70 4.45 255.85 4.47 256.02 4.47L256.02 13.26C255.85 13.26 255.70 13.27 255.56 13.27C255.42 13.27 255.32 13.29 255.25 13.29L255.11 13.29C254.93 13.30 254.84 13.38 254.84 13.54L254.84 13.82L256.02 13.82L261.95 13.82L261.95 13.22L261.95 11.76L261.60 11.76C261.41 11.76 261.32 11.89 261.31 12.11C261.31 12.14 261.30 12.19 261.30 12.29C261.30 12.39 261.30 12.53 261.28 12.74C261.27 12.95 261.25 13.09 261.25 13.22L256.73 13.22L256.73 9.09L260.68 9.09L260.68 8.51L256.73 8.51L256.73 4.51L261.25 4.51C261.28 5.12 261.31 5.50 261.31 5.63C261.32 5.85 261.41 5.96 261.60 5.96L261.95 5.96L261.95 4.51L261.95 3.92ZM294.71 3.92L294.17 3.92L294.13 3.92L292.66 3.92L292.66 4.19C292.66 4.34 292.74 4.42 292.92 4.44L293.05 4.44C293.10 4.44 293.20 4.45 293.34 4.45C293.48 4.45 293.62 4.47 293.79 4.47L291.41 12.24C291.38 12.33 291.35 12.43 291.34 12.54C291.33 12.66 291.30 12.75 291.27 12.87C291.24 12.75 291.23 12.63 291.20 12.53L291.12 12.24L288.32 4.10C288.29 4.05 288.26 3.99 288.22 3.96C288.18 3.93 288.12 3.92 288.05 3.92L287.85 3.92C287.78 3.92 287.73 3.93 287.69 3.98C287.64 4.02 287.60 4.05 287.59 4.10L284.79 12.25C284.76 12.35 284.73 12.43 284.70 12.54C284.68 12.64 284.66 12.75 284.63 12.88C284.62 12.78 284.59 12.67 284.56 12.54C284.55 12.43 284.52 12.33 284.49 12.24L282.11 4.47C282.28 4.47 282.42 4.45 282.55 4.45C282.67 4.45 282.76 4.44 282.81 4.44L282.93 4.44C283.11 4.42 283.21 4.34 283.21 4.19L283.21 3.92L281.74 3.92L281.15 3.92L280.55 3.92L280.55 4.19C280.55 4.34 280.64 4.42 280.83 4.44L280.92 4.44C280.97 4.44 281.01 4.45 281.08 4.45C281.15 4.45 281.23 4.47 281.32 4.47L284.27 13.82L284.90 13.82L287.84 5.22C287.88 5.11 287.91 5.00 287.94 4.87C287.97 5.00 287.99 5.11 288.04 5.22L290.96 13.82L291.61 13.82L294.55 4.47C294.63 4.47 294.70 4.45 294.77 4.45C294.84 4.45 294.90 4.44 294.94 4.44L295.04 4.44C295.22 4.42 295.30 4.34 295.30 4.19L295.30 3.92ZM311.11 13.22L310.65 13.17L306.87 3.91L306.15 3.91L302.36 13.17L301.91 13.22C301.73 13.23 301.64 13.33 301.64 13.50L301.64 13.82L302.09 13.82L302.39 13.82L302.64 13.82L302.74 13.82L304.05 13.82L304.05 13.50C304.05 13.31 303.94 13.23 303.73 13.22C303.72 13.22 303.69 13.20 303.65 13.20C303.60 13.20 303.55 13.19 303.45 13.19C303.35 13.19 303.23 13.19 303.09 13.17L304.07 10.75L304.14 10.57L308.87 10.57L308.94 10.75L309.92 13.17C309.78 13.19 309.67 13.19 309.57 13.19C309.47 13.19 309.40 13.20 309.36 13.20C309.32 13.20 309.29 13.22 309.27 13.22C309.06 13.23 308.95 13.31 308.95 13.50L308.95 13.82L310.27 13.82L310.37 13.82L310.63 13.82L310.91 13.82L311.37 13.82L311.37 13.50C311.37 13.33 311.29 13.23 311.11 13.22ZM306.31 5.22C306.33 5.14 306.38 5.04 306.40 4.94C306.43 4.84 306.47 4.75 306.50 4.63C306.53 4.75 306.57 4.84 306.60 4.94C306.63 5.04 306.67 5.12 306.70 5.21L308.66 10.04L304.36 10.04ZM326.03 3.92L325.84 3.92L318.54 3.92L318.33 3.92L318.23 3.92L318.23 5.96L318.58 5.96C318.78 5.96 318.86 5.85 318.88 5.63C318.88 5.53 318.91 5.17 318.93 4.52L321.83 4.52L321.83 13.26C321.66 13.26 321.52 13.27 321.38 13.27C321.24 13.27 321.13 13.29 321.06 13.29L320.94 13.29C320.75 13.30 320.66 13.38 320.66 13.54L320.66 13.82L321.83 13.82L322.55 13.82L323.74 13.82L323.74 13.54C323.74 13.38 323.64 13.30 323.46 13.29L323.32 13.29C323.25 13.29 323.15 13.27 323.01 13.27C322.87 13.27 322.71 13.26 322.55 13.26L322.55 4.52L325.43 4.52C325.47 5.24 325.49 5.60 325.49 5.63C325.50 5.85 325.60 5.96 325.79 5.96L326.13 5.96L326.13 3.92ZM335.43 3.92L334.24 3.92L334.24 4.19C334.24 4.34 334.33 4.42 334.52 4.44L334.66 4.44C334.73 4.44 334.82 4.45 334.96 4.45C335.10 4.45 335.26 4.47 335.43 4.47L335.43 13.26C335.26 13.26 335.10 13.27 334.96 13.27C334.82 13.27 334.73 13.29 334.66 13.29L334.52 13.29C334.33 13.30 334.25 13.38 334.25 13.54L334.25 13.82L335.43 13.82L341.36 13.82L341.36 13.22L341.36 11.76L341.01 11.76C340.82 11.76 340.73 11.89 340.72 12.11C340.72 12.14 340.70 12.19 340.70 12.29C340.70 12.39 340.70 12.53 340.69 12.74C340.68 12.95 340.66 13.09 340.66 13.22L336.14 13.22L336.14 9.09L340.09 9.09L340.09 8.51L336.14 8.51L336.14 4.51L340.66 4.51C340.69 5.12 340.72 5.50 340.72 5.63C340.73 5.85 340.82 5.96 341.01 5.96L341.36 5.96L341.36 4.51L341.36 3.92ZM357.94 13.29L357.84 13.29L357.66 13.29C357.57 13.29 357.49 13.27 357.41 13.27L354.44 9.53C354.35 9.42 354.24 9.32 354.13 9.25C354.56 9.21 354.96 9.11 355.31 8.96C355.66 8.81 355.94 8.61 356.19 8.37C356.43 8.13 356.62 7.85 356.75 7.55C356.87 7.24 356.94 6.89 356.94 6.51C356.94 5.66 356.66 5.03 356.10 4.58C355.54 4.14 354.69 3.92 353.54 3.92L351.13 3.92L349.96 3.92L349.96 4.19C349.96 4.34 350.04 4.42 350.22 4.44L350.36 4.44C350.43 4.44 350.53 4.45 350.67 4.45C350.81 4.45 350.97 4.47 351.13 4.47L351.13 13.26C350.97 13.26 350.81 13.27 350.67 13.27C350.53 13.27 350.43 13.29 350.36 13.29L350.22 13.29C350.04 13.30 349.94 13.38 349.94 13.54L349.94 13.82L351.13 13.82L351.85 13.82L353.02 13.82L353.02 13.54C353.02 13.38 352.93 13.30 352.74 13.29L352.60 13.29C352.53 13.29 352.44 13.27 352.30 13.27C352.16 13.27 352.02 13.26 351.85 13.26L351.85 9.34L353.02 9.34C353.22 9.34 353.36 9.35 353.44 9.39C353.53 9.44 353.61 9.52 353.70 9.62L356.87 13.64C356.93 13.71 356.97 13.75 357.03 13.78C357.08 13.80 357.15 13.82 357.22 13.82L357.29 13.82L357.84 13.82L358.20 13.82L358.20 13.54C358.20 13.38 358.12 13.30 357.94 13.29ZM353.44 8.81L351.85 8.81L351.85 4.48L353.54 4.48C354.42 4.48 355.10 4.66 355.56 5.00C356.02 5.33 356.24 5.87 356.24 6.57C356.24 6.92 356.19 7.21 356.06 7.49C355.94 7.77 355.74 7.99 355.50 8.19C355.26 8.39 354.97 8.55 354.62 8.65C354.27 8.75 353.88 8.81 353.44 8.81Z"></path></g></svg>